<svg width="32" height="32" viewBox="0 0 32 32" fill="none" xmlns="http://www.w3.org/2000/svg">
<circle opacity="0.5" cx="16" cy="16" r="16" fill="#F0F2FF"/>
<g clip-path="url(#clip0)">
<path fill-rule="evenodd" clip-rule="evenodd" d="M20.9999 11.0001H10.9999C10.7789 11.0001 10.5669 11.0879 10.4107 11.2442C10.2544 11.4004 10.1666 11.6124 10.1666 11.8334V21.0001C10.1666 21.2211 10.2544 21.4331 10.4107 21.5893C10.5669 21.7456 10.7789 21.8334 10.9999 21.8334H20.9999C21.2209 21.8334 21.4329 21.7456 21.5892 21.5893C21.7455 21.4331 21.8333 21.2211 21.8333 21.0001V11.8334C21.8333 11.6124 21.7455 11.4004 21.5892 11.2442C21.4329 11.0879 21.2209 11.0001 20.9999 11.0001ZM10.9999 10.1667C10.5579 10.1667 10.134 10.3423 9.82141 10.6549C9.50885 10.9675 9.33325 11.3914 9.33325 11.8334V21.0001C9.33325 21.4421 9.50885 21.866 9.82141 22.1786C10.134 22.4912 10.5579 22.6667 10.9999 22.6667H20.9999C21.4419 22.6667 21.8659 22.4912 22.1784 22.1786C22.491 21.866 22.6666 21.4421 22.6666 21.0001V11.8334C22.6666 11.3914 22.491 10.9675 22.1784 10.6549C21.8659 10.3423 21.4419 10.1667 20.9999 10.1667H10.9999Z" fill="#C3C8D5"/>
<path fill-rule="evenodd" clip-rule="evenodd" d="M20.9999 11.0001H10.9999C10.7789 11.0001 10.5669 11.0879 10.4107 11.2442C10.2544 11.4004 10.1666 11.6124 10.1666 11.8334V12.6667H21.8333V11.8334C21.8333 11.6124 21.7455 11.4004 21.5892 11.2442C21.4329 11.0879 21.2209 11.0001 20.9999 11.0001ZM10.9999 10.1667C10.5579 10.1667 10.134 10.3423 9.82141 10.6549C9.50885 10.9675 9.33325 11.3914 9.33325 11.8334V13.5001H22.6666V11.8334C22.6666 11.3914 22.491 10.9675 22.1784 10.6549C21.8659 10.3423 21.4419 10.1667 20.9999 10.1667H10.9999Z" fill="#C3C8D5"/>
<path fill-rule="evenodd" clip-rule="evenodd" d="M12.2499 9.33337C12.3604 9.33337 12.4664 9.37727 12.5445 9.45541C12.6227 9.53355 12.6666 9.63953 12.6666 9.75004V10.1667C12.6666 10.2772 12.6227 10.3832 12.5445 10.4613C12.4664 10.5395 12.3604 10.5834 12.2499 10.5834C12.1394 10.5834 12.0334 10.5395 11.9553 10.4613C11.8772 10.3832 11.8333 10.2772 11.8333 10.1667V9.75004C11.8333 9.63953 11.8772 9.53355 11.9553 9.45541C12.0334 9.37727 12.1394 9.33337 12.2499 9.33337V9.33337ZM19.7499 9.33337C19.8604 9.33337 19.9664 9.37727 20.0445 9.45541C20.1227 9.53355 20.1666 9.63953 20.1666 9.75004V10.1667C20.1666 10.2772 20.1227 10.3832 20.0445 10.4613C19.9664 10.5395 19.8604 10.5834 19.7499 10.5834C19.6394 10.5834 19.5334 10.5395 19.4553 10.4613C19.3771 10.3832 19.3333 10.2772 19.3333 10.1667V9.75004C19.3333 9.63953 19.3771 9.53355 19.4553 9.45541C19.5334 9.37727 19.6394 9.33337 19.7499 9.33337V9.33337Z" fill="#C3C8D5"/>
</g>
<defs>
<clipPath id="clip0">
<rect width="13.3333" height="13.3333" fill="white" transform="translate(9.33325 9.33337)"/>
</clipPath>
</defs>
</svg>
