<svg width="32" height="32" viewBox="0 0 32 32" fill="none" xmlns="http://www.w3.org/2000/svg">
<rect width="32" height="32" fill="white"/>
<path d="M16 32C24.8366 32 32 24.8366 32 16C32 7.16344 24.8366 0 16 0C7.16344 0 0 7.16344 0 16C0 24.8366 7.16344 32 16 32Z" fill="url(#paint0_linear)"/>
<g clip-path="url(#clip0)">
<path fill-rule="evenodd" clip-rule="evenodd" d="M19.908 10.1498C20.96 10.1498 22.0125 10.2973 23.0643 10.6852C23.3791 10.8012 23.5751 11.0863 23.5754 11.3876V14.112C23.2522 14.0506 22.9187 14.0185 22.5777 14.0185C19.642 14.0185 17.2622 16.3984 17.2622 19.3341C17.2622 19.4224 17.2643 19.5103 17.2686 19.5976C16.4787 19.734 15.6887 19.9098 14.8988 20.0856C13.229 20.4571 11.5591 20.8287 9.88933 20.8287C8.83731 20.8287 7.78475 20.6811 6.733 20.2931C6.4182 20.1772 6.22217 19.8919 6.22217 19.5908V12.0284C6.22217 11.5876 6.62996 11.2701 7.09659 11.2701C7.18878 11.2701 7.28314 11.2825 7.37722 11.3087C8.21477 11.5423 9.05178 11.6358 9.88933 11.6358C11.559 11.6358 13.2286 11.2643 14.8982 10.8928C16.5681 10.5212 18.238 10.1497 19.908 10.1498ZM12.7295 15.4892C12.7295 16.7528 13.7005 17.7776 14.8986 17.7776C16.0963 17.7776 17.0678 16.7533 17.0678 15.4892C17.0678 14.2254 16.0965 13.2009 14.8986 13.2009C13.7007 13.2009 12.7295 14.2254 12.7295 15.4892Z" fill="white"/>
<path fill-rule="evenodd" clip-rule="evenodd" d="M22.5777 23.4229C24.8359 23.4229 26.6665 21.5922 26.6665 19.334C26.6665 17.0758 24.8359 15.2451 22.5777 15.2451C20.3194 15.2451 18.4888 17.0758 18.4888 19.334C18.4888 21.5922 20.3194 23.4229 22.5777 23.4229ZM24.5849 21.267C24.5849 21.7186 24.2188 22.0847 23.7671 22.0847C23.3155 22.0847 22.9494 21.7186 22.9494 21.267C22.9494 20.8153 23.3155 20.4492 23.7671 20.4492C24.2188 20.4492 24.5849 20.8153 24.5849 21.267ZM21.5368 18.3675C21.9885 18.3675 22.3546 18.0014 22.3546 17.5498C22.3546 17.0981 21.9885 16.732 21.5368 16.732C21.0852 16.732 20.719 17.0981 20.719 17.5498C20.719 18.0014 21.0852 18.3675 21.5368 18.3675ZM24.6127 17.4303C24.3846 17.194 24.008 17.1874 23.7718 17.4156L20.481 20.5935C20.2447 20.8217 20.2381 21.1982 20.4663 21.4345C20.6945 21.6707 21.071 21.6773 21.3073 21.4491L24.5981 18.2713C24.8343 18.0431 24.8409 17.6666 24.6127 17.4303Z" fill="white"/>
</g>
<defs>
<linearGradient id="paint0_linear" x1="0" y1="0" x2="34.9442" y2="28.374" gradientUnits="userSpaceOnUse">
<stop stop-color="#9E91E3"/>
<stop offset="1" stop-color="#93A6E9"/>
</linearGradient>
<clipPath id="clip0">
<rect width="21.3333" height="21.3333" fill="white" transform="translate(5.33325 5.33337)"/>
</clipPath>
</defs>
</svg>
