<svg width="36" height="36" viewBox="0 0 36 36" fill="none" xmlns="http://www.w3.org/2000/svg">
<path fill-rule="evenodd" clip-rule="evenodd" d="M18 36C27.9411 36 36 27.9411 36 18C36 8.05887 27.9411 0 18 0C8.05887 0 0 8.05887 0 18C0 27.9411 8.05887 36 18 36ZM28.0098 12.1108C26.7205 11.6354 25.4302 11.4545 24.1406 11.4545C22.0934 11.4544 20.0464 11.9099 17.9993 12.3654C15.9526 12.8208 13.9059 13.2762 11.8591 13.2762C10.8324 13.2762 9.80631 13.1616 8.77958 12.8753C8.66424 12.8431 8.54858 12.8279 8.43557 12.8279C7.86354 12.8279 7.36364 13.2171 7.36364 13.7574V23.028C7.36364 23.3971 7.60395 23.7468 7.98984 23.8889C9.27915 24.3646 10.5695 24.5455 11.8591 24.5455C13.9061 24.5455 15.953 24.09 18 23.6345L18 23.6345C18.8527 23.4448 19.7053 23.255 20.558 23.0982C21.0226 25.3263 22.9977 27 25.3636 27C28.0749 27 30.2727 24.8021 30.2727 22.0909C30.2727 20.637 29.6407 19.3307 28.6364 18.4318V12.972C28.636 12.6026 28.3957 12.2531 28.0098 12.1108ZM17.9998 20.8052C16.531 20.8052 15.3408 19.549 15.3408 18C15.3408 16.4507 16.5314 15.1948 17.9998 15.1948C19.4683 15.1948 20.6589 16.4507 20.6589 18C20.6589 19.5496 19.468 20.8052 17.9998 20.8052Z" fill="white"/>
<path d="M27.8119 18.9435C27.5525 18.7418 27.1786 18.7885 26.9768 19.0479L22.8113 24.4036C22.5053 24.797 22.7919 25.364 23.2806 25.364C23.458 25.364 23.6335 25.285 23.7508 25.1342L27.9163 19.7786C28.118 19.5192 28.0713 19.1453 27.8119 18.9435Z" fill="white"/>
<path d="M27.4465 25.364C28.1038 25.364 28.6366 24.8311 28.6366 24.1738C28.6366 23.5165 28.1038 22.9837 27.4465 22.9837C26.7892 22.9837 26.2563 23.5165 26.2563 24.1738C26.2563 24.8311 26.7892 25.364 27.4465 25.364Z" fill="white"/>
<path d="M23.281 21.1985C23.9383 21.1985 24.4711 20.6656 24.4711 20.0083C24.4711 19.351 23.9383 18.8182 23.281 18.8182C22.6237 18.8182 22.0908 19.351 22.0908 20.0083C22.0908 20.6656 22.6237 21.1985 23.281 21.1985Z" fill="white"/>
</svg>
