<svg width="32" height="32" viewBox="0 0 32 32" fill="none" xmlns="http://www.w3.org/2000/svg">
<circle opacity="0.5" cx="16" cy="16" r="16" fill="#F0F2FF"/>
<path d="M16.4001 12.4C16.4001 12.6209 16.221 12.8 16.0001 12.8C15.7792 12.8 15.6001 12.6209 15.6001 12.4C15.6001 12.1791 15.7792 12 16.0001 12C16.221 12 16.4001 12.1791 16.4001 12.4Z" fill="#C3C8D5" stroke="#C3C8D5"/>
<path d="M15.7785 14.7876C15.7784 14.7876 15.7785 14.7868 15.7793 14.7853C15.779 14.7869 15.7786 14.7876 15.7785 14.7876ZM15.78 14.784C15.7827 14.7795 15.7892 14.771 15.8039 14.7591C15.8395 14.7306 15.9072 14.7 16 14.7C16.0929 14.7 16.1605 14.7306 16.1962 14.7591C16.2109 14.771 16.2174 14.7795 16.22 14.784V19.9159C16.2174 19.9204 16.2109 19.9289 16.1962 19.9408C16.1605 19.9694 16.0929 20 16 20C15.9072 20 15.8395 19.9694 15.8039 19.9408C15.7892 19.9289 15.7827 19.9204 15.78 19.9159V14.784ZM15.7785 19.9123C15.7786 19.9123 15.779 19.913 15.7793 19.9146C15.7785 19.9131 15.7784 19.9123 15.7785 19.9123ZM16.2216 19.9123C16.2217 19.9123 16.2215 19.9131 16.2207 19.9146C16.2211 19.913 16.2215 19.9123 16.2216 19.9123ZM16.2216 14.7876C16.2215 14.7876 16.2211 14.7869 16.2207 14.7853C16.2215 14.7868 16.2217 14.7876 16.2216 14.7876Z" fill="#C3C8D5" stroke="#C3C8D5"/>
<circle cx="16" cy="16" r="8.35" stroke="#C3C8D5" stroke-width="1.3"/>
</svg>
