<svg version="1.1"
	 xmlns="http://www.w3.org/2000/svg" xmlns:xlink="http://www.w3.org/1999/xlink" xmlns:a="http://ns.adobe.com/AdobeSVGViewerExtensions/3.0/"
	 x="0px" y="0px" width="48.1px" height="48.1px" viewBox="0 0 48.1 48.1" style="enable-background:new 0 0 48.1 48.1;"
	 xml:space="preserve">
<style type="text/css">
	.st0{fill-rule:evenodd;clip-rule:evenodd;fill:url(#SVGID_1_);}
	.st1{fill-rule:evenodd;clip-rule:evenodd;fill:url(#SVGID_2_);}
	.st2{fill-rule:evenodd;clip-rule:evenodd;fill:url(#SVGID_3_);}
	.st3{fill-rule:evenodd;clip-rule:evenodd;fill:url(#SVGID_4_);}
	.st4{fill-rule:evenodd;clip-rule:evenodd;fill:url(#SVGID_5_);}
	.st5{fill-rule:evenodd;clip-rule:evenodd;fill:url(#SVGID_6_);}
	.st6{fill-rule:evenodd;clip-rule:evenodd;fill:url(#SVGID_7_);}
	.st7{fill-rule:evenodd;clip-rule:evenodd;fill:url(#SVGID_8_);}
	.st8{fill-rule:evenodd;clip-rule:evenodd;fill:url(#SVGID_9_);}
	.st9{fill-rule:evenodd;clip-rule:evenodd;fill:url(#SVGID_10_);}
	.st10{fill-rule:evenodd;clip-rule:evenodd;fill:url(#SVGID_11_);}
	.st11{fill-rule:evenodd;clip-rule:evenodd;fill:url(#SVGID_12_);}
</style>
<defs>
</defs>
<g>
	<linearGradient id="SVGID_1_" gradientUnits="userSpaceOnUse" x1="23.938" y1="47.7435" x2="23.938" y2="0.1693">
		<stop  offset="0" style="stop-color:#03368F"/>
		<stop  offset="1" style="stop-color:#FF006E"/>
	</linearGradient>
	<path class="st0" d="M18.2,14.6c1.2,0.3,2.3,0.7,3.5,1c1.3,0.4,1.2,0.4,1.5,1.7c0.2,1.2,0.5,2.3,0.7,3.5l0,0.3l0.1-0.3
		c1.2-5.4,0.4-4.6,5.7-6.2C25.9,15.3,22,15.3,18.2,14.6z"/>
	<linearGradient id="SVGID_2_" gradientUnits="userSpaceOnUse" x1="12.4017" y1="47.7435" x2="12.4017" y2="0.1693">
		<stop  offset="0" style="stop-color:#03368F"/>
		<stop  offset="1" style="stop-color:#FF006E"/>
	</linearGradient>
	<path class="st1" d="M12.5,14c1.3,0.1,2.6,0.2,3.9,0.3c-2.5-0.6-5.1-1.2-6.7-2.4c0.2,0.4,0.4,0.8,0.6,1.2c0.2,0.5,0.2,0.4,0,0.9
		c-0.6,1.1-1.2,2.2-1.8,3.3l2.7-2.8C11.7,13.9,11.7,13.9,12.5,14z"/>
	<linearGradient id="SVGID_3_" gradientUnits="userSpaceOnUse" x1="15.7781" y1="47.7435" x2="15.7781" y2="0.1693">
		<stop  offset="0" style="stop-color:#03368F"/>
		<stop  offset="1" style="stop-color:#FF006E"/>
	</linearGradient>
	<path class="st2" d="M17.9,23.3c0.8-0.5,2.7,0.1,4.7,0.2l-4.7-1.6c-2.5-0.5-1.3-3.2-1.2-5.4l-1.6,3.2c-0.4,0.9-2,1.1-3,0.9
		c-1.5-0.3-1.7-0.4-3.2-0.7c1.8,1.3,3.3,2.2,4.7,3.5c3.3,3.2,5.6,6.9,8.3,11.7l-4.2-9.7C17.5,24.8,16.9,23.9,17.9,23.3z"/>
	<linearGradient id="SVGID_4_" gradientUnits="userSpaceOnUse" x1="32.5244" y1="47.7435" x2="32.5244" y2="0.1693">
		<stop  offset="0" style="stop-color:#03368F"/>
		<stop  offset="1" style="stop-color:#FF006E"/>
	</linearGradient>
	<path class="st3" d="M33.2,19.8l-1.6-3.2c0.1,2.2,1.3,4.9-1.2,5.4l-4.7,1.6c2-0.2,3.9-0.7,4.7-0.2c1,0.6,0.4,1.5,0.1,2.2l-4.2,9.7
		c2.6-4.8,5-8.6,8.3-11.7c1.4-1.3,2.9-2.2,4.7-3.5c-1.5,0.3-1.7,0.4-3.2,0.7C35.2,20.9,33.6,20.6,33.2,19.8z"/>
	<linearGradient id="SVGID_5_" gradientUnits="userSpaceOnUse" x1="24.0445" y1="47.7435" x2="24.0445" y2="0.1693">
		<stop  offset="0" style="stop-color:#03368F"/>
		<stop  offset="1" style="stop-color:#FF006E"/>
	</linearGradient>
	<path class="st4" d="M39,0h-30C4.1,0,0,4.1,0,9.1V39c0,5,4.1,9.1,9.1,9.1h30c5,0,9.1-4.1,9.1-9.1V9.1C48.1,4.1,44,0,39,0z
		 M40.7,20.8C34.7,27.4,30,32.5,24,39.1l-0.1,0.1l-0.1-0.1L7,20.6c-1.4-1.5-2.6-3.4-1.3-4.9c1.4-1.7,2.3-2.8,3.7-4.5l8.9-2.3h5.6
		h5.6l8.9,2.3l3.6,4.4C43.8,17.7,42.6,18.8,40.7,20.8z"/>
	<linearGradient id="SVGID_6_" gradientUnits="userSpaceOnUse" x1="35.475" y1="47.7435" x2="35.475" y2="0.1693">
		<stop  offset="0" style="stop-color:#03368F"/>
		<stop  offset="1" style="stop-color:#FF006E"/>
	</linearGradient>
	<path class="st5" d="M37.7,12.9c0.2-0.3,0.3-0.7,0.5-1c-1.9,1.3-4.3,1.9-6.7,2.4c1.3-0.1,1.9-0.2,3.2-0.3c0.8-0.1,1.5-0.2,2,0.4
		l2.8,2.8c-0.6-1-1.1-2-1.7-3.1C37.4,13.6,37.4,13.6,37.7,12.9z"/>
</g>
</svg>