<svg width="60" height="20" viewBox="0 0 60 20" fill="none" xmlns="http://www.w3.org/2000/svg">
<g clip-path="url(#clip0)">
<path d="M22.1336 1.85596H13.3384V17.553H22.1336V1.85596Z" fill="#FF5F00"/>
<path d="M13.8967 9.70433C13.8967 6.515 15.4045 3.68621 17.7219 1.85581C16.0187 0.524607 13.8688 -0.279663 11.5234 -0.279663C5.96702 -0.279663 1.47168 4.1854 1.47168 9.70433C1.47168 15.2233 5.96702 19.6883 11.5234 19.6883C13.8688 19.6883 16.0187 18.8841 17.7219 17.5529C15.4045 15.7502 13.8967 12.8937 13.8967 9.70433Z" fill="#EB001B"/>
<path d="M34.0002 9.70433C34.0002 15.2233 29.5049 19.6883 23.9485 19.6883C21.6032 19.6883 19.4532 18.8841 17.75 17.5529C20.0954 15.7225 21.5752 12.8937 21.5752 9.70433C21.5752 6.515 20.0675 3.68621 17.75 1.85581C19.4532 0.524607 21.6032 -0.279663 23.9485 -0.279663C29.5049 -0.279663 34.0002 4.21314 34.0002 9.70433Z" fill="#F79E1B"/>
<g opacity="0.56" clip-path="url(#clip1)">
<path d="M45.4219 9.96875C45.4219 10.5383 45.8836 11 46.4531 11C47.0227 11 47.4844 10.5383 47.4844 9.96875C47.4844 9.39921 47.0227 8.9375 46.4531 8.9375C45.8836 8.9375 45.4219 9.39921 45.4219 9.96875Z" fill="white"/>
<path d="M55.1605 17.8322C57.3643 15.7782 58.5781 12.9967 58.5781 9.99988C58.5781 7.00332 57.3643 4.22186 55.1605 2.16777C54.908 1.93246 54.5125 1.94637 54.2772 2.19887C54.0419 2.4514 54.0557 2.84686 54.3083 3.08221C56.2556 4.8972 57.3281 7.35395 57.3281 10.0001C57.3281 12.646 56.2556 15.1028 54.3083 16.9178C54.1762 17.0409 54.1094 17.2078 54.1094 17.3751C54.1094 17.5277 54.1649 17.6807 54.2772 17.8011C54.5125 18.0536 54.908 18.0676 55.1605 17.8322Z" fill="white"/>
<path d="M52.5795 15.5372C54.1093 14.0189 54.9517 12.0524 54.9517 9.99987C54.9516 7.9469 54.1091 5.98034 52.5794 4.46247C52.3344 4.21935 51.9386 4.22088 51.6955 4.46591C51.4524 4.71094 51.4539 5.10666 51.699 5.34978C52.9904 6.63119 53.7016 8.28262 53.7017 9.99987C53.7017 11.7167 52.9904 13.3681 51.6989 14.65C51.5758 14.7722 51.5142 14.9329 51.5142 15.0936C51.5142 15.2527 51.5746 15.412 51.6956 15.5339C51.9387 15.7789 52.3345 15.7804 52.5795 15.5372Z" fill="white"/>
<path d="M49.9909 13.0359C50.7965 12.2228 51.2969 11.0573 51.2969 9.99408C51.2969 9.99395 51.2969 9.99373 51.2969 9.99361V9.94858C51.2969 9.94839 51.2969 9.9483 51.2969 9.94811C51.2969 8.88489 50.7964 7.71926 49.9909 6.90617C49.7479 6.66098 49.3522 6.65914 49.107 6.90208C48.9837 7.02429 48.9219 7.18517 48.9219 7.34608C48.9219 7.50505 48.9822 7.66408 49.1029 7.78592C49.6764 8.36476 50.0469 9.21342 50.0469 9.94817C50.0469 9.94826 50.0469 9.94839 50.0469 9.94848V9.9937C50.0469 9.99383 50.0469 9.99386 50.0469 9.99398C50.0469 10.7286 49.6763 11.5774 49.1029 12.1561C48.86 12.4013 48.8617 12.7971 49.107 13.04C49.3522 13.283 49.7479 13.2811 49.9909 13.0359Z" fill="white"/>
</g>
</g>
<defs>
<clipPath id="clip0">
<rect width="60" height="20" fill="white"/>
</clipPath>
<clipPath id="clip1">
<rect width="16" height="16" fill="white" transform="translate(44 2)"/>
</clipPath>
</defs>
</svg>
