<svg width="71" height="62" viewBox="0 0 71 62" fill="none" xmlns="http://www.w3.org/2000/svg">
<path d="M25.9631 51H30.258C30.5569 51 30.762 50.8066 30.762 50.5254C30.762 50.2441 30.5569 50.0508 30.258 50.0508H26.4905V47.1445H30.0471C30.3401 47.1445 30.5452 46.9512 30.5452 46.6758C30.5452 46.3945 30.3401 46.207 30.0471 46.207H26.4905V43.4941H30.258C30.5569 43.4941 30.762 43.3008 30.762 43.0195C30.762 42.7383 30.5569 42.5449 30.258 42.5449H25.9631C25.6409 42.5449 25.4358 42.7559 25.4358 43.0898V50.4551C25.4358 50.7891 25.6409 51 25.9631 51ZM32.7891 51H39.7793V52.2656C39.7793 52.541 39.9844 52.7285 40.2715 52.7285C40.5586 52.7285 40.752 52.541 40.752 52.2656V50.707C40.752 50.373 40.5469 50.1621 40.2246 50.1621H39.7852V45.334C39.7852 45.0176 39.5742 44.8008 39.2812 44.8008C38.9883 44.8008 38.7773 45.0176 38.7773 45.334V50.1621H36.5273V45.334C36.5273 45.0176 36.3164 44.8008 36.0234 44.8008C35.7305 44.8008 35.5195 45.0176 35.5195 45.334V50.1621H33.2695V45.334C33.2695 45.0176 33.0586 44.8008 32.7656 44.8008C32.4727 44.8008 32.2617 45.0176 32.2617 45.334V50.4551C32.2617 50.7891 32.4668 51 32.7891 51ZM44.4607 51.1055C45.574 51.1055 46.4295 50.6367 46.822 49.8105C46.8689 49.6992 46.8982 49.5938 46.8982 49.5117C46.8982 49.2422 46.7166 49.0664 46.447 49.0664C46.2888 49.0664 46.1716 49.125 46.0662 49.2715C45.5916 49.9629 45.1462 50.2207 44.4197 50.2207C43.3298 50.2207 42.656 49.459 42.656 48.2285H46.4646C46.8162 48.2285 47.0271 48.0059 47.0271 47.6367C47.0271 45.9668 45.9314 44.8008 44.3728 44.8008C42.6912 44.8008 41.6072 46.0547 41.6072 47.9766C41.6072 49.9453 42.6619 51.1055 44.4607 51.1055ZM42.6619 47.4316C42.7263 46.3828 43.406 45.6855 44.3552 45.6855C45.2986 45.6855 45.949 46.377 45.9724 47.4316H42.6619Z" fill="#0D213A"/>
<path fill-rule="evenodd" clip-rule="evenodd" d="M29.3 21.5C29.9627 21.5 30.5 20.9627 30.5 20.3C30.5 19.6373 29.9627 19.1 29.3 19.1C28.6373 19.1 28.1 19.6373 28.1 20.3C28.1 20.9627 28.6373 21.5 29.3 21.5ZM29.3 22.6C30.5703 22.6 31.6 21.5703 31.6 20.3C31.6 19.0297 30.5703 18 29.3 18C28.0297 18 27 19.0297 27 20.3C27 21.5703 28.0297 22.6 29.3 22.6Z" fill="#545863"/>
<path fill-rule="evenodd" clip-rule="evenodd" d="M35.5002 21.5C36.1629 21.5 36.7002 20.9627 36.7002 20.3C36.7002 19.6373 36.1629 19.1 35.5002 19.1C34.8375 19.1 34.3002 19.6373 34.3002 20.3C34.3002 20.9627 34.8375 21.5 35.5002 21.5ZM35.5002 22.6C36.7705 22.6 37.8002 21.5703 37.8002 20.3C37.8002 19.0297 36.7705 18 35.5002 18C34.2299 18 33.2002 19.0297 33.2002 20.3C33.2002 21.5703 34.2299 22.6 35.5002 22.6Z" fill="#545863"/>
<path fill-rule="evenodd" clip-rule="evenodd" d="M41.6999 21.5C42.3626 21.5 42.8999 20.9627 42.8999 20.3C42.8999 19.6373 42.3626 19.1 41.6999 19.1C41.0372 19.1 40.4999 19.6373 40.4999 20.3C40.4999 20.9627 41.0372 21.5 41.6999 21.5ZM41.6999 22.6C42.9702 22.6 43.9999 21.5703 43.9999 20.3C43.9999 19.0297 42.9702 18 41.6999 18C40.4296 18 39.3999 19.0297 39.3999 20.3C39.3999 21.5703 40.4296 22.6 41.6999 22.6Z" fill="#545863"/>
</svg>
