<svg width="71" height="62" viewBox="0 0 71 62" fill="none" xmlns="http://www.w3.org/2000/svg">
<path d="M16.8844 51H19.4332C21.0211 51 22.1402 49.957 22.1402 48.4629C22.1402 46.9629 21.0094 45.9141 19.4215 45.9141H17.4117V43.4941H20.8746C21.1734 43.4941 21.3785 43.3008 21.3785 43.0195C21.3785 42.7383 21.1734 42.5449 20.8746 42.5449H16.8844C16.5621 42.5449 16.357 42.7559 16.357 43.0898V50.4551C16.357 50.7891 16.5621 51 16.8844 51ZM17.4117 50.0508V46.8633H19.1578C20.3648 46.8633 21.0562 47.4375 21.0562 48.4629C21.0562 49.4824 20.3707 50.0508 19.1578 50.0508H17.4117ZM26.3353 51.1055C28.017 51.1055 29.1537 49.8926 29.1537 47.9531C29.1537 46.0078 28.017 44.8008 26.3353 44.8008C24.6478 44.8008 23.5111 46.0078 23.5111 47.9531C23.5111 49.8926 24.6478 51.1055 26.3353 51.1055ZM26.3353 50.209C25.2572 50.209 24.5482 49.3887 24.5482 47.9531C24.5482 46.5176 25.2572 45.6973 26.3353 45.6973C27.4134 45.6973 28.1166 46.5176 28.1166 47.9531C28.1166 49.3887 27.4134 50.209 26.3353 50.209ZM31.0284 51.1055C31.3273 51.1055 31.5323 50.8828 31.5323 50.5605V48.2578H34.5382V50.5605C34.5382 50.8828 34.7433 51.1055 35.0421 51.1055C35.3409 51.1055 35.546 50.8828 35.546 50.5605V45.3457C35.546 45.0234 35.3409 44.8008 35.0421 44.8008C34.7433 44.8008 34.5382 45.0234 34.5382 45.3457V47.4199H31.5323V45.3457C31.5323 45.0234 31.3273 44.8008 31.0284 44.8008C30.7296 44.8008 30.5245 45.0234 30.5245 45.3457V50.5605C30.5245 50.8828 30.7296 51.1055 31.0284 51.1055ZM37.8251 53.2793C38.8329 53.2793 39.3309 52.8281 39.8583 51.4277L42.1083 45.5391C42.1434 45.4395 42.161 45.3457 42.161 45.2695C42.161 44.9941 41.9559 44.8008 41.663 44.8008C41.411 44.8008 41.2762 44.9062 41.1825 45.1758L39.495 49.9805H39.4774L37.7958 45.1758C37.702 44.9062 37.5497 44.8008 37.3095 44.8008C37.0165 44.8008 36.7997 44.9883 36.7997 45.2695C36.7997 45.3457 36.8173 45.4395 36.8524 45.5391L38.9501 51.0059L38.8095 51.4336C38.5692 52.1719 38.2001 52.4062 37.8134 52.4062C37.6552 52.4062 37.6141 52.4004 37.4677 52.4004C37.2098 52.4004 37.0575 52.5527 37.0575 52.7754C37.0575 53.0977 37.3329 53.2793 37.8251 53.2793ZM45.7467 51.1055C46.8541 51.1055 47.8209 50.4961 48.1139 49.6523C48.1432 49.5586 48.1608 49.4707 48.1608 49.3945C48.1608 49.1309 47.985 48.9492 47.7213 48.9492C47.4987 48.9492 47.3873 49.0312 47.2409 49.3066C46.9245 49.8926 46.4791 50.209 45.7467 50.209C44.6979 50.209 43.9713 49.3535 43.9713 47.9531C43.9713 46.5879 44.6862 45.6973 45.7467 45.6973C46.4498 45.6973 46.9127 45.9961 47.235 46.5996C47.3756 46.8633 47.4987 46.957 47.7213 46.957C47.985 46.957 48.1549 46.7812 48.1549 46.5117C48.1549 46.4473 48.1432 46.3711 48.1198 46.2949C47.8854 45.4512 46.8834 44.8008 45.735 44.8008C44.0475 44.8008 42.9342 46.0488 42.9342 47.9648C42.9342 49.8926 44.0592 51.1055 45.7467 51.1055ZM50.1117 51H51.7465C53.141 51 54.0375 50.1973 54.0375 48.9258C54.0375 47.6543 53.141 46.8516 51.7465 46.8516H50.5922V45.2754C50.5922 44.9941 50.3754 44.8008 50.0824 44.8008C49.7895 44.8008 49.5844 44.9941 49.5844 45.2754V50.4551C49.5844 50.7891 49.7895 51 50.1117 51ZM55.2973 51.1055C55.5961 51.1055 55.807 50.8828 55.807 50.5605V45.3457C55.807 45.0234 55.5961 44.8008 55.2973 44.8008C54.9984 44.8008 54.7875 45.0234 54.7875 45.3457V50.5605C54.7875 50.8828 54.9984 51.1055 55.2973 51.1055ZM50.5922 50.1621V47.6895H51.7289C52.5141 47.6895 53.0297 48.1758 53.0297 48.9258C53.0297 49.6699 52.5199 50.1621 51.7289 50.1621H50.5922Z" fill="#0D213A"/>
<path fill-rule="evenodd" clip-rule="evenodd" d="M30.6995 13.9997H27.55C26.694 13.9997 26 14.6936 26 15.5497V18.265C26 18.8712 26.3719 19.3905 26.9 19.6071V28.5497C26.9 29.4057 27.594 30.0997 28.45 30.0997H42.65C43.506 30.0997 44.2 29.4057 44.2 28.5497V19.6071C44.7281 19.3905 45.1 18.8712 45.1 18.265V15.5497C45.1 14.6936 44.406 13.9997 43.55 13.9997H40.4005C41.18 13.2353 41.3495 12.0282 40.7009 11.0771C39.9549 9.98318 38.4314 9.68213 37.2914 10.3606C36.7526 10.6812 36.0788 11.3551 35.6125 12.0497C35.5914 12.0811 35.5706 12.1128 35.55 12.1449C35.5294 12.1128 35.5086 12.0811 35.4875 12.0497C35.0212 11.3551 34.3474 10.6812 33.8086 10.3606C32.6686 9.68213 31.1451 9.98318 30.3991 11.0771C29.7505 12.0282 29.92 13.2353 30.6995 13.9997ZM39.7921 11.6968C39.3887 11.1054 38.518 10.9106 37.8539 11.3058C37.4907 11.522 36.9274 12.0645 36.5258 12.6628C36.3274 12.9584 36.1916 13.234 36.1324 13.4576C36.1083 13.5486 36.1 13.6173 36.0998 13.6686L36.0998 13.6744C36.1004 13.749 36.1183 13.7851 36.1276 13.7987C36.1501 13.8317 36.24 13.9141 36.51 13.9636C36.7667 14.0107 37.1024 14.0112 37.4772 13.9677C38.237 13.8794 39.0075 13.6293 39.3724 13.4121C40.0161 13.029 40.1789 12.2641 39.7921 11.6968ZM27.55 15.0997C27.3015 15.0997 27.1 15.3011 27.1 15.5497V18.265C27.1 18.4583 27.2567 18.615 27.45 18.615H35V15.0997H27.55ZM35.0002 13.6691C35 13.6178 34.9918 13.5489 34.9676 13.4576C34.9084 13.234 34.7726 12.9584 34.5742 12.6628C34.1726 12.0645 33.6093 11.522 33.2461 11.3058C32.582 10.9106 31.7113 11.1054 31.3079 11.6968C30.9211 12.2641 31.0839 13.029 31.7276 13.4121C32.0925 13.6293 32.863 13.8794 33.6228 13.9677C33.9976 14.0112 34.3333 14.0107 34.59 13.9636C34.86 13.9141 34.9499 13.8317 34.9724 13.7987C34.9819 13.7848 35.0004 13.7473 35.0002 13.6691ZM43.55 15.0997C43.7985 15.0997 44 15.3011 44 15.5497V18.265C44 18.4583 43.8433 18.615 43.65 18.615H36.1V15.0997H43.55ZM35 19.715H28V28.5497C28 28.7982 28.2015 28.9997 28.45 28.9997H35V19.715ZM36.1 28.9997V19.715H43.1V28.5497C43.1 28.7982 42.8985 28.9997 42.65 28.9997H36.1Z" fill="#545863"/>
</svg>
