<svg width="71" height="62" viewBox="0 0 71 62" fill="none" xmlns="http://www.w3.org/2000/svg">
<path d="M9.59274 51.1406C11.6259 51.1406 12.8974 50.1211 12.8974 48.5039C12.8974 47.25 12.1474 46.5352 10.3662 46.166L9.45797 45.9785C8.40328 45.7559 7.98141 45.3867 7.98141 44.8125C7.98141 44.1035 8.64938 43.6582 9.58688 43.6582C10.3779 43.6582 10.9814 43.9629 11.2685 44.6777C11.4267 45.0059 11.6435 45.1582 11.9951 45.1582C12.3877 45.1582 12.6513 44.9062 12.6513 44.5371C12.6513 44.3965 12.6338 44.2852 12.5986 44.1914C12.2529 43.0723 11.0927 42.4043 9.59859 42.4043C7.76461 42.4043 6.45797 43.4121 6.45797 44.9004C6.45797 46.1367 7.24899 46.9336 8.94234 47.2793L9.85055 47.4668C10.9521 47.6953 11.374 48.0703 11.374 48.6797C11.374 49.3828 10.6591 49.8867 9.63961 49.8867C8.73727 49.8867 8.0107 49.5586 7.74703 48.8262C7.58297 48.4863 7.37203 48.3516 7.03805 48.3516C6.63961 48.3516 6.37008 48.6211 6.37008 49.043C6.37008 49.1836 6.39938 49.3359 6.45211 49.4766C6.78024 50.4375 7.90524 51.1406 9.59274 51.1406ZM14.8542 51.1172C15.2878 51.1172 15.5866 50.8359 15.5866 50.3496V47.1973C15.5866 46.4473 16.0788 45.9023 16.782 45.9023C17.4616 45.9023 17.8835 46.3301 17.8835 47.0215V50.3496C17.8835 50.8359 18.153 51.1172 18.5925 51.1172C19.0261 51.1172 19.3015 50.8359 19.3015 50.3496V47.1621C19.3015 46.418 19.782 45.9023 20.4851 45.9023C21.1999 45.9023 21.5984 46.3359 21.5984 47.0977V50.3496C21.5984 50.8359 21.8913 51.1172 22.3308 51.1172C22.7644 51.1172 23.0573 50.8359 23.0573 50.3496V46.7402C23.0573 45.498 22.2546 44.6719 21.03 44.6719C20.1335 44.6719 19.3952 45.1523 19.0964 45.9199H19.0613C18.8327 45.123 18.2058 44.6719 17.3269 44.6719C16.4831 44.6719 15.8269 45.1465 15.5573 45.8672H15.528V45.4102C15.528 44.9355 15.2351 44.666 14.8249 44.666C14.4148 44.666 14.1277 44.9355 14.1277 45.4102V50.3496C14.1277 50.8359 14.4148 51.1172 14.8542 51.1172ZM26.2915 51.0996C27.0942 51.0996 27.8735 50.6836 28.2309 50.0098H28.2602V50.4434C28.2837 50.877 28.5591 51.1172 28.9575 51.1172C29.3677 51.1172 29.6665 50.8535 29.6665 50.3848V46.7227C29.6665 45.4746 28.6645 44.6602 27.1235 44.6602C25.9341 44.6602 24.9731 45.1172 24.6567 45.8379C24.5923 45.9727 24.5571 46.1016 24.5571 46.2363C24.5571 46.5879 24.8149 46.8223 25.1723 46.8223C25.4184 46.8223 25.6118 46.7285 25.7641 46.5293C26.1274 45.9961 26.4966 45.8027 27.0649 45.8027C27.7856 45.8027 28.2251 46.1777 28.2251 46.8281V47.2734L26.5786 47.3672C25.0669 47.4609 24.2173 48.123 24.2173 49.2246C24.2173 50.3438 25.0903 51.0996 26.2915 51.0996ZM26.7368 49.998C26.104 49.998 25.6763 49.6758 25.6763 49.166C25.6763 48.6738 26.0805 48.3574 26.7837 48.3105L28.2251 48.2227V48.6973C28.2251 49.4473 27.5571 49.998 26.7368 49.998ZM31.8108 51.1172C32.2502 51.1172 32.5432 50.8301 32.5432 50.3496V47.3613C32.5432 46.6055 32.8596 46.084 33.6916 46.0781C33.9788 46.0723 34.1955 46.0078 34.3362 45.8848C34.4827 45.7676 34.553 45.5977 34.553 45.3691C34.553 45.1289 34.4827 44.9531 34.3479 44.8418C34.2366 44.7422 34.0608 44.6836 33.8323 44.6836C33.2112 44.6836 32.6721 45.1523 32.5022 45.8789H32.4729V45.4043C32.4729 44.9473 32.1858 44.666 31.7815 44.666C31.3655 44.666 31.0842 44.9473 31.0842 45.4043V50.3496C31.0842 50.8301 31.3713 51.1172 31.8108 51.1172ZM35.8535 49.4648C35.8535 50.5254 36.4043 51.0645 37.4883 51.0645H37.5469C38.2148 51.0645 38.5898 50.8359 38.5898 50.4082C38.5898 50.0684 38.3906 49.9043 38.0039 49.8691L37.8984 49.8574C37.4766 49.8223 37.3125 49.6172 37.3125 49.1484V45.9141H37.9863C38.3496 45.9141 38.5723 45.6973 38.5723 45.3457C38.5723 45 38.3496 44.7891 37.9863 44.7891H37.3125V43.9629C37.3125 43.4941 37.0312 43.2012 36.5859 43.2012C36.1348 43.2012 35.8535 43.4941 35.8535 43.9629V44.7891H35.4609C35.0977 44.7891 34.875 45 34.875 45.3457C34.875 45.6973 35.0977 45.9141 35.4609 45.9141H35.8535V49.4648ZM40.4705 51.1172C40.8923 51.1172 41.1912 50.8535 41.1912 50.3848V49.9395H41.2205C41.5896 50.6602 42.2869 51.0996 43.1951 51.0996C44.7713 51.0996 45.7615 49.8809 45.7615 47.8945C45.7615 45.9082 44.7654 44.6836 43.2009 44.6836C42.3162 44.6836 41.613 45.1289 41.2556 45.8555H41.2205V43.1953C41.2205 42.7031 40.9216 42.4277 40.4939 42.4277C40.0662 42.4277 39.7615 42.7031 39.7615 43.1953V50.3848C39.7615 50.8594 40.0486 51.1172 40.4705 51.1172ZM42.7498 49.9043C41.8474 49.9043 41.2146 49.1133 41.2146 47.8945C41.2146 46.6875 41.8474 45.8848 42.7498 45.8848C43.6814 45.8848 44.2673 46.6641 44.2673 47.8945C44.2673 49.1309 43.6814 49.9043 42.7498 49.9043ZM48.7671 51.0996C49.5698 51.0996 50.3491 50.6836 50.7066 50.0098H50.7359V50.4434C50.7593 50.877 51.0347 51.1172 51.4331 51.1172C51.8433 51.1172 52.1421 50.8535 52.1421 50.3848V46.7227C52.1421 45.4746 51.1402 44.6602 49.5991 44.6602C48.4097 44.6602 47.4487 45.1172 47.1323 45.8379C47.0679 45.9727 47.0327 46.1016 47.0327 46.2363C47.0327 46.5879 47.2905 46.8223 47.648 46.8223C47.8941 46.8223 48.0874 46.7285 48.2398 46.5293C48.603 45.9961 48.9722 45.8027 49.5405 45.8027C50.2612 45.8027 50.7007 46.1777 50.7007 46.8281V47.2734L49.0542 47.3672C47.5425 47.4609 46.6929 48.123 46.6929 49.2246C46.6929 50.3438 47.5659 51.0996 48.7671 51.0996ZM49.2124 49.998C48.5796 49.998 48.1519 49.6758 48.1519 49.166C48.1519 48.6738 48.5562 48.3574 49.2593 48.3105L50.7007 48.2227V48.6973C50.7007 49.4473 50.0327 49.998 49.2124 49.998ZM54.2864 51.1172C54.7141 51.1172 55.0188 50.8418 55.0188 50.3496V47.4023C55.0188 46.5117 55.552 45.9082 56.3899 45.9082C57.222 45.9082 57.6321 46.4004 57.6321 47.2793V50.3496C57.6321 50.8418 57.9368 51.1172 58.3645 51.1172C58.7923 51.1172 59.0911 50.8418 59.0911 50.3496V46.9863C59.0911 45.5508 58.3118 44.6719 56.9407 44.6719C55.9856 44.6719 55.3411 45.0996 55.0071 45.8379H54.9778V45.4043C54.9778 44.9531 54.6848 44.666 54.2571 44.666C53.8235 44.666 53.5598 44.9531 53.5598 45.4043V50.3496C53.5598 50.8418 53.8587 51.1172 54.2864 51.1172ZM61.2764 51.1172C61.7041 51.1172 62.003 50.8418 62.003 50.3496V48.8672L62.5537 48.3516L64.417 50.7129C64.628 51.0176 64.7979 51.1172 65.085 51.1172C65.4893 51.1172 65.7764 50.8477 65.7764 50.4668C65.7764 50.2793 65.7295 50.1504 65.5772 49.9395L63.6319 47.5078L65.4014 45.832C65.6006 45.6445 65.6651 45.5098 65.6651 45.293C65.6651 44.9414 65.3897 44.666 65.0264 44.666C64.8037 44.666 64.6455 44.748 64.458 44.9473L62.0205 47.3555H62.003V43.1953C62.003 42.7031 61.7041 42.4277 61.2764 42.4277C60.8487 42.4277 60.544 42.7031 60.544 43.1953V50.3496C60.544 50.8418 60.8487 51.1172 61.2764 51.1172Z" fill="#9C81E8"/>
<path fill-rule="evenodd" clip-rule="evenodd" d="M47.3918 18.3268L37.7503 29.0284C37.3943 29.4192 36.9493 29.6596 36.445 29.7799C36.4302 29.7799 36.4153 29.7874 36.4005 29.7949C36.3857 29.8024 36.3708 29.8099 36.356 29.8099H36.267C36.178 29.84 36.089 29.84 36 29.84C35.9555 29.84 35.911 29.8325 35.8665 29.825C35.822 29.8175 35.7775 29.8099 35.733 29.8099H35.644C35.6292 29.8099 35.6143 29.8024 35.5995 29.7949C35.5847 29.7874 35.5698 29.7799 35.555 29.7799C35.0507 29.6897 34.6057 29.4492 34.2497 29.0584L24.6082 18.3568C24.2818 17.9961 24.0742 17.5452 24.0148 17.0642V17.0342V17.0041C23.9555 16.463 24.0742 15.8919 24.3708 15.441L27.0705 11.1423C27.2781 10.8116 27.5748 10.511 27.9011 10.3307C27.9011 10.3006 27.9308 10.3006 27.9308 10.3006C28.2868 10.0902 28.6724 10 29.0581 10H36H42.9419C43.3276 10 43.7132 10.1202 44.0692 10.3006H44.0989C44.4252 10.511 44.7219 10.7816 44.9295 11.1122L47.6292 15.4109C47.9258 15.8919 48.0445 16.433 47.9852 16.9741V17.0041V17.0342C47.9258 17.5152 47.7182 17.9661 47.3918 18.3268ZM29.5704 11H42.4296C43.0983 11 43.7228 11.3342 44.0937 11.8906L46.6285 15.6927C47.14 16.46 47.0606 17.4776 46.4363 18.1562L37.4719 27.9002C36.6796 28.7613 35.3204 28.7613 34.5281 27.9002L25.5637 18.1562C24.9394 17.4776 24.86 16.46 25.3715 15.6927L27.9063 11.8906C28.2772 11.3342 28.9017 11 29.5704 11Z" fill="#9C81E8"/>
<path d="M38.5361 17.6903C38.7337 17.6903 38.8773 17.878 38.8257 18.0687L36.2896 27.431C36.2095 27.7265 35.7905 27.7265 35.7104 27.431L33.1743 18.0687C33.1227 17.878 33.2663 17.6903 33.4639 17.6903H38.5361ZM43.3757 12.5088C43.3757 12.5014 43.3661 12.5025 43.3621 12.5086L40.9977 16.1428C40.8679 16.3424 41.0111 16.6064 41.2492 16.6064H45.7724C45.8841 16.6064 45.9752 16.4856 45.9012 16.402C45.8933 16.393 45.8862 16.3846 45.8797 16.3746L43.3769 12.5167C43.3761 12.5155 43.3757 12.5102 43.3757 12.5088ZM42.052 12.4636C42.1818 12.264 42.0386 12 41.8005 12H37.5476C37.3095 12 37.1662 12.264 37.2961 12.4636L39.4226 15.7322C39.5409 15.914 39.8072 15.914 39.9255 15.7322L42.052 12.4636ZM27.2731 17.6903C27.0135 17.6903 26.8764 17.9978 27.05 18.1909L33.7792 25.6758C33.9946 25.9154 34.3849 25.6931 34.2886 25.3856L31.9459 17.9007C31.9067 17.7755 31.7907 17.6903 31.6595 17.6903H27.2731ZM38.6796 16.5855C38.6796 16.5917 38.6715 16.594 38.6682 16.5889L36.2511 12.8492C36.1331 12.6666 35.8662 12.6662 35.7477 12.8484L33.6221 16.1157C33.4922 16.3153 33.6354 16.5793 33.8735 16.5793H38.6734C38.6768 16.5793 38.6796 16.5821 38.6796 16.5855ZM34.7039 12.4636C34.8338 12.264 34.6905 12 34.4524 12H30.1995C29.9614 12 29.8182 12.264 29.948 12.4636L32.0745 15.7322C32.1928 15.914 32.4591 15.914 32.5774 15.7322L34.7039 12.4636ZM26.0829 16.3897C26.0311 16.4912 26.1183 16.6064 26.2322 16.6064H30.7508C30.9889 16.6064 31.1321 16.3424 31.0023 16.1428L28.6437 12.5175C28.6337 12.5021 28.6121 12.4997 28.599 12.5126C28.5975 12.5141 28.5961 12.5157 28.5949 12.5175L26.0829 16.3897ZM45.0418 18.1925C45.2175 17.9999 45.0809 17.6903 44.8202 17.6903H40.3302C40.1992 17.6903 40.0833 17.7754 40.044 17.9004L37.6866 25.4057C37.5903 25.7121 37.9779 25.9351 38.1944 25.6978L45.0418 18.1925Z" fill="#9C81E8"/>
</svg>
