<svg width="71" height="62" viewBox="0 0 71 62" fill="none" xmlns="http://www.w3.org/2000/svg">
<path d="M15.4519 51.082C15.7683 51.082 15.9792 50.8652 15.9792 50.5371V46.8926H16.0261L19.9695 50.8184C20.1628 51.0059 20.2859 51.082 20.4675 51.082C20.7546 51.082 20.9831 50.8594 20.9831 50.584C20.9831 50.4375 20.9245 50.3027 20.8191 50.1973L17.1394 46.5879L20.5085 43.2598C20.6081 43.166 20.6491 43.0488 20.6491 42.9258C20.6491 42.668 20.4382 42.4629 20.1628 42.4629C19.9988 42.4629 19.8933 42.5215 19.7585 42.6562L16.0261 46.4414H15.9792V43.0078C15.9792 42.6797 15.7683 42.4629 15.4519 42.4629C15.1355 42.4629 14.9245 42.6797 14.9245 43.0078V50.5371C14.9245 50.8652 15.1355 51.082 15.4519 51.082ZM24.0708 51.1055C24.8911 51.1055 25.6704 50.6484 26.0337 49.9512H26.0571V50.5898C26.0571 50.8945 26.2563 51.1055 26.5434 51.1055C26.8247 51.1055 27.0239 50.8945 27.0239 50.5898V46.7871C27.0239 45.5742 26.1216 44.8008 24.6919 44.8008C23.7016 44.8008 22.811 45.2402 22.4653 45.9082C22.3833 46.0547 22.3423 46.2012 22.3423 46.3301C22.3423 46.6055 22.5298 46.7871 22.7934 46.7871C22.9868 46.7871 23.1216 46.7109 23.2153 46.541C23.5552 45.9375 24.0063 45.6973 24.6684 45.6973C25.5122 45.6973 26.0044 46.1426 26.0044 46.8867V47.3965L24.2524 47.4961C22.8462 47.5781 22.0434 48.2344 22.0434 49.2773C22.0434 50.373 22.8579 51.1055 24.0708 51.1055ZM24.2993 50.2383C23.5669 50.2383 23.0805 49.8574 23.0805 49.2773C23.0805 48.7031 23.5493 48.3398 24.3696 48.2871L26.0044 48.1875V48.6855C26.0044 49.5645 25.2602 50.2383 24.2993 50.2383ZM30.5334 51.1055C30.8264 51.1055 31.0432 50.9121 31.0432 50.6309V45.7441H32.7014C32.9358 45.7441 33.0998 45.5801 33.0998 45.334C33.0998 45.0879 32.9358 44.9062 32.7014 44.9062H28.3772C28.1428 44.9062 27.9788 45.0879 27.9788 45.334C27.9788 45.5801 28.1428 45.7441 28.3772 45.7441H30.0354V50.6309C30.0354 50.9121 30.2405 51.1055 30.5334 51.1055ZM35.7422 51.1055C36.5625 51.1055 37.3418 50.6484 37.7051 49.9512H37.7285V50.5898C37.7285 50.8945 37.9277 51.1055 38.2148 51.1055C38.4961 51.1055 38.6953 50.8945 38.6953 50.5898V46.7871C38.6953 45.5742 37.793 44.8008 36.3633 44.8008C35.373 44.8008 34.4824 45.2402 34.1367 45.9082C34.0547 46.0547 34.0137 46.2012 34.0137 46.3301C34.0137 46.6055 34.2012 46.7871 34.4648 46.7871C34.6582 46.7871 34.793 46.7109 34.8867 46.541C35.2266 45.9375 35.6777 45.6973 36.3398 45.6973C37.1836 45.6973 37.6758 46.1426 37.6758 46.8867V47.3965L35.9238 47.4961C34.5176 47.5781 33.7148 48.2344 33.7148 49.2773C33.7148 50.373 34.5293 51.1055 35.7422 51.1055ZM35.9707 50.2383C35.2383 50.2383 34.752 49.8574 34.752 49.2773C34.752 48.7031 35.2207 48.3398 36.041 48.2871L37.6758 48.1875V48.6855C37.6758 49.5645 36.9316 50.2383 35.9707 50.2383ZM40.365 51.0293C41.3259 51.0293 41.8298 50.1914 41.9646 48.3633L42.158 45.7441H44.2322V50.6309C44.2322 50.9121 44.449 51.1055 44.742 51.1055C45.0349 51.1055 45.24 50.9121 45.24 50.6309V45.4512C45.24 45.1172 45.0349 44.9062 44.7127 44.9062H41.742C41.4197 44.9062 41.238 45.0996 41.2146 45.4512L40.9978 48.4277C40.9099 49.5996 40.6345 50.1035 40.1248 50.1152H40.0603C39.8084 50.1152 39.656 50.2793 39.656 50.5195C39.656 50.8301 39.9314 51.0293 40.365 51.0293ZM49.4527 51.1055C51.1343 51.1055 52.271 49.8926 52.271 47.9531C52.271 46.0078 51.1343 44.8008 49.4527 44.8008C47.7652 44.8008 46.6284 46.0078 46.6284 47.9531C46.6284 49.8926 47.7652 51.1055 49.4527 51.1055ZM49.4527 50.209C48.3745 50.209 47.6656 49.3887 47.6656 47.9531C47.6656 46.5176 48.3745 45.6973 49.4527 45.6973C50.5308 45.6973 51.2339 46.5176 51.2339 47.9531C51.2339 49.3887 50.5308 50.209 49.4527 50.209ZM54.1399 51.1055C54.4329 51.1055 54.6497 50.9121 54.6497 50.6309V45.7441H57.2513C57.4856 45.7441 57.6497 45.5742 57.6497 45.3281C57.6497 45.0762 57.4856 44.9062 57.2513 44.9062H54.1692C53.847 44.9062 53.6419 45.1172 53.6419 45.4512V50.6309C53.6419 50.9121 53.847 51.1055 54.1399 51.1055Z" fill="#0D213A"/>
<path d="M33.375 13.619H29.875L29 28.5H43L42.125 13.619H38.625M33.375 13.619V13.619C33.375 12.1726 34.5535 11 36 11V11C37.4465 11 38.625 12.1726 38.625 13.619V13.619M33.375 13.619H38.625M33.375 13.619V15.4286M38.625 13.619V15.4286" stroke="#545863" stroke-width="1.1" stroke-linecap="round" stroke-linejoin="round"/>
</svg>
