<svg width="71" height="62" viewBox="0 0 71 62" fill="none" xmlns="http://www.w3.org/2000/svg">
<path d="M12.8796 51.082C13.2019 51.082 13.407 50.8711 13.407 50.5371V43.5059H17.9363V50.5371C17.9363 50.8711 18.1413 51.082 18.4636 51.082C18.7859 51.082 18.9909 50.8711 18.9909 50.5371V43.0898C18.9909 42.7559 18.7859 42.5449 18.4636 42.5449H12.8796C12.5573 42.5449 12.3523 42.7559 12.3523 43.0898V50.5371C12.3523 50.8711 12.5573 51.082 12.8796 51.082ZM20.8423 51.0293C21.8032 51.0293 22.3071 50.1914 22.4419 48.3633L22.6352 45.7441H24.7095V50.6309C24.7095 50.9121 24.9263 51.1055 25.2192 51.1055C25.5122 51.1055 25.7173 50.9121 25.7173 50.6309V45.4512C25.7173 45.1172 25.5122 44.9062 25.1899 44.9062H22.2192C21.897 44.9062 21.7153 45.0996 21.6919 45.4512L21.4751 48.4277C21.3872 49.5996 21.1118 50.1035 20.602 50.1152H20.5376C20.2856 50.1152 20.1333 50.2793 20.1333 50.5195C20.1333 50.8301 20.4087 51.0293 20.8423 51.0293ZM29.1799 51.1055C30.0002 51.1055 30.7795 50.6484 31.1428 49.9512H31.1663V50.5898C31.1663 50.8945 31.3655 51.1055 31.6526 51.1055C31.9338 51.1055 32.133 50.8945 32.133 50.5898V46.7871C32.133 45.5742 31.2307 44.8008 29.801 44.8008C28.8108 44.8008 27.9202 45.2402 27.5745 45.9082C27.4924 46.0547 27.4514 46.2012 27.4514 46.3301C27.4514 46.6055 27.6389 46.7871 27.9026 46.7871C28.0959 46.7871 28.2307 46.7109 28.3245 46.541C28.6643 45.9375 29.1155 45.6973 29.7776 45.6973C30.6213 45.6973 31.1135 46.1426 31.1135 46.8867V47.3965L29.3616 47.4961C27.9553 47.5781 27.1526 48.2344 27.1526 49.2773C27.1526 50.373 27.967 51.1055 29.1799 51.1055ZM29.4084 50.2383C28.676 50.2383 28.1897 49.8574 28.1897 49.2773C28.1897 48.7031 28.6584 48.3398 29.4788 48.2871L31.1135 48.1875V48.6855C31.1135 49.5645 30.3694 50.2383 29.4084 50.2383ZM35.6426 51.1055C35.9355 51.1055 36.1523 50.9121 36.1523 50.6309V45.7441H37.8105C38.0449 45.7441 38.209 45.5801 38.209 45.334C38.209 45.0879 38.0449 44.9062 37.8105 44.9062H33.4863C33.252 44.9062 33.0879 45.0879 33.0879 45.334C33.0879 45.5801 33.252 45.7441 33.4863 45.7441H35.1445V50.6309C35.1445 50.9121 35.3496 51.1055 35.6426 51.1055ZM41.7478 51.1055C42.8611 51.1055 43.7166 50.6367 44.1091 49.8105C44.156 49.6992 44.1853 49.5938 44.1853 49.5117C44.1853 49.2422 44.0037 49.0664 43.7341 49.0664C43.5759 49.0664 43.4587 49.125 43.3533 49.2715C42.8787 49.9629 42.4334 50.2207 41.7068 50.2207C40.617 50.2207 39.9431 49.459 39.9431 48.2285H43.7517C44.1033 48.2285 44.3142 48.0059 44.3142 47.6367C44.3142 45.9668 43.2185 44.8008 41.6599 44.8008C39.9783 44.8008 38.8943 46.0547 38.8943 47.9766C38.8943 49.9453 39.949 51.1055 41.7478 51.1055ZM39.949 47.4316C40.0134 46.3828 40.6931 45.6855 41.6423 45.6855C42.5857 45.6855 43.2361 46.377 43.2595 47.4316H39.949ZM49.2827 51.1055C49.5816 51.1055 49.7866 50.8887 49.7866 50.5664V48.0703H49.8335L52.2241 50.8184C52.4116 51.0352 52.5347 51.1055 52.7632 51.1055C53.0034 51.1055 53.2202 50.9238 53.2202 50.6426C53.2202 50.4902 53.1382 50.373 53.0269 50.2441L50.8472 47.7891L52.9859 45.5859C53.1089 45.4629 53.1499 45.375 53.1499 45.2285C53.1499 44.9766 52.939 44.8008 52.6812 44.8008C52.5406 44.8008 52.4175 44.8535 52.3062 44.9766L49.8335 47.6016H49.7866V45.3398C49.7866 45.0176 49.5816 44.8008 49.2827 44.8008C48.9839 44.8008 48.7788 45.0176 48.7788 45.3398V47.6016H48.7378L46.2652 44.9766C46.1538 44.8535 46.0308 44.8008 45.8902 44.8008C45.6323 44.8008 45.4214 44.9766 45.4214 45.2285C45.4214 45.375 45.4624 45.4629 45.5855 45.5859L47.7241 47.7891L45.5445 50.2441C45.4331 50.373 45.3511 50.4902 45.3511 50.6426C45.3511 50.9238 45.5679 51.1055 45.8081 51.1055C46.0366 51.1055 46.1597 51.0352 46.3472 50.8184L48.7378 48.0703H48.7788V50.5664C48.7788 50.8887 48.9839 51.1055 49.2827 51.1055ZM55.2532 51.1055C55.5345 51.1055 55.7102 51 55.9212 50.6836L58.7571 46.4648H58.804V50.5781C58.804 50.8945 59.0149 51.1055 59.3079 51.1055C59.6009 51.1055 59.8118 50.8945 59.8118 50.5781V45.375C59.8118 45.0176 59.595 44.8008 59.2552 44.8008C58.9739 44.8008 58.7981 44.9062 58.5872 45.2227L55.7571 49.4414H55.7102V45.3281C55.7102 45.0117 55.4993 44.8008 55.2063 44.8008C54.9134 44.8008 54.7024 45.0117 54.7024 45.3281V50.5312C54.7024 50.8887 54.8958 51.1055 55.2532 51.1055Z" fill="#0D213A"/>
<path fill-rule="evenodd" clip-rule="evenodd" d="M39.8613 10.1472C40.0956 9.91286 40.4755 9.91286 40.7098 10.1472L44.1384 13.5757C44.2509 13.6883 44.3141 13.8409 44.3141 14C44.3141 14.1591 44.2509 14.3117 44.1384 14.4243L40.7098 17.8528C40.4755 18.0872 40.0956 18.0872 39.8613 17.8528C39.627 17.6185 39.627 17.2386 39.8613 17.0043L42.2656 14.6H31.7141C30.9639 14.6 30.2445 14.898 29.714 15.4285C29.1836 15.9589 28.8855 16.6784 28.8855 17.4286V19.1429C28.8855 19.4742 28.6169 19.7429 28.2855 19.7429C27.9542 19.7429 27.6855 19.4742 27.6855 19.1429V17.4286C27.6855 16.3601 28.11 15.3355 28.8655 14.5799C29.621 13.8244 30.6457 13.4 31.7141 13.4H42.2656L39.8613 10.9957C39.627 10.7614 39.627 10.3815 39.8613 10.1472ZM43.7141 20.2572C44.0455 20.2572 44.3141 20.5258 44.3141 20.8572V22.5714C44.3141 23.6399 43.8897 24.6646 43.1342 25.4201C42.3787 26.1756 41.354 26.6 40.2855 26.6H29.7341L32.1384 29.0043C32.3727 29.2386 32.3727 29.6185 32.1384 29.8528C31.9041 30.0872 31.5242 30.0872 31.2899 29.8528L27.8613 26.4243C27.7488 26.3117 27.6855 26.1591 27.6855 26C27.6855 25.8409 27.7488 25.6883 27.8613 25.5757L31.2899 22.1472C31.5242 21.9129 31.9041 21.9129 32.1384 22.1472C32.3727 22.3815 32.3727 22.7614 32.1384 22.9957L29.7341 25.4H40.2855C41.0357 25.4 41.7552 25.102 42.2857 24.5715C42.8161 24.0411 43.1141 23.3216 43.1141 22.5714V20.8572C43.1141 20.5258 43.3827 20.2572 43.7141 20.2572Z" fill="#545863"/>
</svg>
