<svg width="56" height="56" viewBox="0 0 56 56" fill="none" xmlns="http://www.w3.org/2000/svg">
<circle cx="28" cy="28" r="28" fill="#5FAAFE" fill-opacity="0.1"/>
<path d="M23.9999 33.6L19.3332 28.9333C19.2112 28.8098 19.0659 28.7117 18.9057 28.6448C18.7455 28.5779 18.5735 28.5434 18.3999 28.5434C18.2263 28.5434 18.0544 28.5779 17.8942 28.6448C17.7339 28.7117 17.5886 28.8098 17.4666 28.9333C17.3431 29.0554 17.245 29.2007 17.1781 29.3609C17.1111 29.5211 17.0767 29.693 17.0767 29.8667C17.0767 30.0403 17.1111 30.2122 17.1781 30.3724C17.245 30.5326 17.3431 30.678 17.4666 30.8L23.0532 36.3867C23.5732 36.9067 24.4132 36.9067 24.9332 36.3867L39.0666 22.2667C39.1901 22.1446 39.2882 21.9993 39.3551 21.8391C39.422 21.6789 39.4565 21.507 39.4565 21.3333C39.4565 21.1597 39.422 20.9878 39.3551 20.8276C39.2882 20.6674 39.1901 20.522 39.0666 20.4C38.9445 20.2765 38.7992 20.1784 38.639 20.1115C38.4788 20.0445 38.3069 20.0101 38.1332 20.0101C37.9596 20.0101 37.7877 20.0445 37.6275 20.1115C37.4673 20.1784 37.3219 20.2765 37.1999 20.4L23.9999 33.6Z" fill="url(#paint0_linear)"/>
<defs>
<linearGradient id="paint0_linear" x1="17.0767" y1="20.0101" x2="33.1677" y2="41.4881" gradientUnits="userSpaceOnUse">
<stop stop-color="#6ECCE0"/>
<stop offset="1" stop-color="#699DE1"/>
</linearGradient>
</defs>
</svg>
