<svg width="22" height="22" viewBox="0 0 22 22" fill="none" xmlns="http://www.w3.org/2000/svg">
<path fill-rule="evenodd" clip-rule="evenodd" d="M17.1401 10.1775C16.9003 9.28194 16.4633 8.45131 15.8611 7.74637C15.259 7.04142 14.5068 6.48 13.6598 6.10315C12.8127 5.7263 11.8921 5.54356 10.9653 5.5683C10.0385 5.59304 9.12897 5.82463 8.30321 6.24613C8.23034 6.28322 8.15088 6.30559 8.06937 6.31197C7.98785 6.31835 7.90588 6.30861 7.82814 6.28331C7.75039 6.25801 7.67838 6.21764 7.61623 6.16452C7.55408 6.11139 7.50301 6.04654 7.46592 5.97367C7.42883 5.90081 7.40646 5.82135 7.40008 5.73984C7.39371 5.65832 7.40344 5.57635 7.42874 5.4986C7.45404 5.42085 7.49441 5.34885 7.54754 5.2867C7.60067 5.22455 7.66551 5.17348 7.73838 5.13639C9.30978 4.33457 11.1144 4.1152 12.8321 4.51719C14.5498 4.91919 16.0697 5.91656 17.1221 7.33243C18.1745 8.74829 18.6914 10.4911 18.5812 12.2518C18.471 14.0125 17.7407 15.6773 16.52 16.9508C15.2992 18.2244 13.6668 19.0244 11.9124 19.2091C10.1579 19.3937 8.39478 18.951 6.93565 17.9595C5.47652 16.9679 4.41572 15.4917 3.94139 13.7925C3.46706 12.0933 3.60986 10.281 4.34446 8.67711C4.37853 8.60278 4.4269 8.53588 4.48682 8.48023C4.54674 8.42459 4.61703 8.3813 4.69368 8.35282C4.77033 8.32434 4.85184 8.31124 4.93356 8.31426C5.01527 8.31729 5.09559 8.33638 5.16993 8.37044C5.24426 8.40451 5.31116 8.45288 5.3668 8.5128C5.42245 8.57272 5.46574 8.64301 5.49422 8.71966C5.5227 8.79631 5.5358 8.87782 5.53277 8.95954C5.52975 9.04125 5.51066 9.12157 5.4766 9.19591C5.06068 10.1034 4.86929 11.0977 4.9186 12.0948C4.9679 13.0918 5.25645 14.0624 5.75987 14.9245C6.26328 15.7865 6.96678 16.5147 7.81093 17.0476C8.65508 17.5805 9.61509 17.9024 10.6099 17.9862C11.6046 18.0699 12.6049 17.913 13.5263 17.5286C14.4476 17.1443 15.2629 16.5439 15.9034 15.7781C16.5438 15.0123 16.9905 14.1037 17.2057 13.1289C17.421 12.1541 17.3985 11.1418 17.1401 10.1775Z" fill="#0D213A"/>
<path fill-rule="evenodd" clip-rule="evenodd" d="M10.9492 2.01613C10.8914 1.9582 10.8228 1.91223 10.7472 1.88088C10.6717 1.84952 10.5906 1.83337 10.5088 1.83337C10.427 1.83337 10.346 1.84952 10.2704 1.88088C10.1948 1.91223 10.1262 1.9582 10.0684 2.01613L6.95814 5.12639C6.90021 5.18417 6.85425 5.25282 6.82289 5.32839C6.79153 5.40396 6.77539 5.48498 6.77539 5.5668C6.77539 5.64862 6.79153 5.72964 6.82289 5.80521C6.85425 5.88079 6.90021 5.94943 6.95814 6.00722L10.0684 9.11748C10.1852 9.23428 10.3436 9.2999 10.5088 9.2999C10.674 9.2999 10.8324 9.23428 10.9492 9.11748C11.066 9.00067 11.1317 8.84225 11.1317 8.67706C11.1317 8.51188 11.066 8.35346 10.9492 8.23665L8.27814 5.5668L10.9492 2.89695C11.0072 2.83917 11.0531 2.77052 11.0845 2.69495C11.1158 2.61938 11.132 2.53836 11.132 2.45654C11.132 2.37472 11.1158 2.2937 11.0845 2.21813C11.0531 2.14255 11.0072 2.07391 10.9492 2.01613Z" fill="#0D213A"/>
</svg>
